<svg id="svg" xmlns="http://www.w3.org/2000/svg" xmlns:xlink="http://www.w3.org/1999/xlink" width="400" height="251.3761467889908" viewBox="0, 0, 400,251.3761467889908"><g id="svgg"><path id="path0" d="M248.938 1.423 C 248.626 2.236,249.261 3.771,250.421 5.006 C 252.409 7.121,254.022 14.932,254.098 22.811 C 254.126 25.679,253.951 25.865,251.606 25.448 C 250.218 25.201,243.107 23.916,235.803 22.592 C 220.556 19.827,219.266 19.735,219.266 21.414 C 219.266 22.872,223.459 24.226,234.014 26.177 C 245.689 28.336,252.643 30.923,258.647 35.343 C 267.637 41.961,274.179 52.179,269.524 52.332 C 268.878 52.354,264.839 52.932,260.550 53.618 L 252.752 54.864 262.385 55.002 C 277.917 55.225,286.881 56.544,285.083 58.342 C 284.784 58.641,275.942 59.462,265.435 60.165 C 254.927 60.868,244.349 61.862,241.927 62.373 C 234.361 63.971,223.163 63.326,224.376 61.364 C 224.653 60.916,225.862 60.550,227.064 60.550 C 230.378 60.550,230.594 59.230,228.382 52.501 C 222.858 35.699,216.051 28.573,200.583 23.399 C 189.852 19.809,190.469 18.552,190.997 42.915 C 191.481 65.251,191.369 66.972,189.436 66.972 C 187.300 66.972,187.110 65.746,186.198 46.130 C 184.468 8.949,183.599 3.781,178.729 1.764 C 174.624 0.064,174.027 1.747,177.107 6.334 C 179.185 9.428,179.817 11.409,179.817 14.838 L 179.817 19.308 165.826 18.762 C 158.131 18.461,146.287 17.367,139.506 16.330 C 120.950 13.492,116.047 14.057,89.908 22.043 C 78.050 25.667,66.491 29.157,64.220 29.800 C 45.195 35.186,1.176 49.781,2.563 50.243 C 4.373 50.846,32.011 44.752,65.596 36.345 C 121.380 22.380,124.335 21.949,122.291 28.080 C 121.509 30.428,120.676 30.811,111.867 32.874 C 62.255 44.496,4.348 59.394,8.085 59.575 C 9.667 59.651,52.492 52.348,75.229 48.125 C 121.720 39.489,122.018 39.476,122.018 46.004 C 122.018 50.525,121.928 50.564,103.211 54.069 C 42.723 65.395,18.073 70.422,22.477 70.534 C 28.371 70.683,76.024 64.103,108.065 58.715 C 114.266 57.672,119.737 57.063,120.221 57.362 C 121.700 58.277,121.342 75.229,119.843 75.229 C 116.682 75.229,73.887 80.001,66.514 81.175 L 58.257 82.491 72.936 82.006 C 81.009 81.739,94.839 80.998,103.670 80.357 C 122.097 79.021,122.018 78.998,122.018 85.827 C 122.018 92.878,121.676 93.049,104.932 94.340 C 86.449 95.765,49.260 100.312,52.294 100.776 C 53.555 100.969,69.339 100.404,87.369 99.520 C 111.778 98.324,120.470 98.178,121.399 98.949 C 122.344 99.733,122.798 104.875,123.271 120.165 C 124.164 149.034,124.475 149.541,141.303 149.541 L 148.780 149.541 148.505 141.587 L 148.230 133.633 179.849 133.824 C 225.857 134.103,222.255 132.818,222.972 149.211 C 223.538 162.135,223.443 161.963,230.505 162.805 L 235.780 163.435 235.780 158.420 C 235.780 139.663,247.782 128.702,263.531 133.075 C 275.107 136.290,277.123 165.523,266.298 173.219 C 253.953 181.996,244.230 174.091,242.535 153.899 C 242.018 147.744,240.367 143.641,240.367 148.512 C 240.367 149.459,239.705 150.784,238.896 151.455 C 235.543 154.238,242.757 172.883,248.874 177.246 C 255.895 182.254,278.013 179.429,283.002 172.888 C 285.301 169.873,285.529 169.785,287.890 171.001 C 289.821 171.995,297.250 172.349,321.618 172.606 L 352.870 172.936 356.481 170.594 C 358.467 169.307,361.845 167.742,363.989 167.118 C 370.102 165.337,371.560 163.156,371.560 155.790 L 371.560 149.541 368.879 149.541 C 367.405 149.541,358.632 150.152,349.384 150.899 C 328.996 152.544,292.434 155.046,288.769 155.046 C 284.124 155.046,285.616 150.983,290.367 150.694 C 292.385 150.572,296.617 150.229,299.771 149.933 L 305.505 149.395 305.480 141.899 C 305.466 137.777,305.080 128.211,304.623 120.642 L 303.791 106.881 300.290 103.831 C 298.364 102.154,293.486 99.170,289.450 97.200 C 281.472 93.307,282.526 93.461,245.859 90.812 C 227.356 89.475,229.073 90.478,226.101 79.267 C 224.707 74.008,223.850 69.422,224.196 69.076 C 224.884 68.388,266.235 70.417,268.393 71.245 C 270.322 71.985,270.281 83.076,268.347 83.819 C 267.589 84.110,260.261 84.649,252.062 85.018 C 232.715 85.889,237.905 86.696,268.418 87.563 L 291.423 88.216 290.193 79.247 C 289.516 74.314,288.340 69.328,287.580 68.166 C 286.310 66.229,286.334 66.055,287.869 66.055 C 294.740 66.055,291.828 56.128,284.367 54.119 C 281.418 53.325,279.859 51.937,275.838 46.528 C 273.131 42.887,268.605 37.737,265.779 35.083 L 260.641 30.257 259.197 19.028 C 257.399 5.048,256.437 1.970,253.520 0.861 C 250.397 -0.327,249.570 -0.225,248.938 1.423 M146.579 43.170 C 146.811 60.563,146.539 65.194,145.358 64.013 C 143.509 62.164,141.649 26.608,143.314 24.943 C 145.911 22.346,146.333 24.704,146.579 43.170 M218.352 62.848 C 219.671 64.438,223.924 88.222,223.055 89.147 C 222.737 89.485,218.658 90.055,213.991 90.412 L 205.505 91.062 205.505 78.100 C 205.505 66.361,205.678 64.964,207.339 63.303 C 209.603 61.039,216.611 60.750,218.352 62.848 M308.592 100.624 C 307.877 103.474,308.868 145.328,309.723 148.377 C 310.276 150.351,310.598 150.407,318.680 149.946 C 329.573 149.325,347.313 147.762,351.282 147.074 L 354.399 146.534 353.750 125.018 C 352.941 98.168,353.236 99.061,345.206 99.157 L 338.991 99.232 342.202 100.650 C 347.133 102.829,343.922 103.530,328.670 103.605 C 315.436 103.671,312.449 102.837,318.437 100.749 C 322.313 99.398,320.244 98.197,314.008 98.179 C 309.564 98.166,309.164 98.347,308.592 100.624 M348.383 106.433 C 348.896 109.368,347.079 110.019,335.751 110.962 C 320.865 112.200,316.841 113.237,323.394 114.144 C 331.485 115.264,332.632 115.622,331.145 116.563 C 330.414 117.025,327.959 117.416,325.688 117.431 C 323.417 117.447,320.962 117.837,320.231 118.300 C 316.381 120.736,337.907 121.665,342.593 119.265 C 346.219 117.407,346.560 115.795,343.403 115.433 C 340.205 115.066,340.248 113.689,343.506 112.079 C 347.644 110.035,348.754 111.182,348.441 117.182 L 348.165 122.459 343.119 123.202 C 340.344 123.611,334.151 124.237,329.358 124.595 L 320.642 125.244 323.133 126.927 C 328.069 130.261,339.404 130.148,343.302 126.725 C 346.983 123.493,349.541 123.009,349.541 125.546 C 349.541 129.545,340.344 132.084,325.712 132.124 C 322.100 132.134,321.038 132.394,322.018 133.028 C 324.229 134.456,341.360 134.099,344.037 132.569 C 348.250 130.160,350.424 132.139,349.148 137.222 C 348.460 139.961,346.789 140.165,346.789 137.511 C 346.789 135.758,346.414 135.622,342.890 136.101 C 340.745 136.393,335.069 136.905,330.275 137.239 C 320.065 137.950,318.685 138.465,322.986 139.958 L 326.147 141.055 322.798 141.713 C 315.824 143.085,316.082 143.713,315.828 124.759 C 315.565 105.070,315.603 104.941,321.052 106.863 C 326.670 108.845,337.165 108.642,341.743 106.461 C 345.928 104.468,348.038 104.459,348.383 106.433 M357.210 126.153 C 356.610 127.718,357.411 138.963,358.405 142.926 C 358.953 145.109,359.179 145.168,365.298 144.730 C 372.430 144.219,373.280 143.797,371.461 141.669 C 370.758 140.847,368.314 136.812,366.029 132.702 C 361.783 125.066,358.549 122.664,357.210 126.153 M152.301 140.965 C 152.310 144.714,154.119 155.391,154.870 156.130 C 155.445 156.697,182.243 158.702,207.683 160.082 L 217.659 160.623 217.259 152.262 C 216.731 141.207,220.799 142.517,180.275 140.352 C 170.688 139.840,160.470 139.181,157.569 138.887 L 152.294 138.352 152.301 140.965 M7.339 142.959 C 4.752 143.476,6.889 144.016,18.349 145.743 C 48.709 150.319,55.646 151.594,59.608 153.328 C 61.865 154.316,64.749 155.003,66.018 154.855 C 67.888 154.638,68.624 155.224,69.916 157.957 C 73.000 164.485,82.739 166.626,89.791 162.327 C 92.852 160.461,92.905 160.460,94.837 162.216 C 99.203 166.186,104.864 167.114,112.229 165.069 C 119.808 162.965,122.154 148.225,115.622 143.754 C 111.739 141.097,111.321 141.683,110.682 150.676 C 109.548 166.661,97.460 170.364,94.574 155.611 C 92.699 146.028,92.834 144.528,95.597 144.209 C 100.125 143.687,101.684 145.342,102.369 151.397 C 102.902 156.113,103.187 156.745,104.345 155.784 C 105.599 154.743,105.750 144.869,104.530 143.686 C 103.816 142.993,10.658 142.297,7.339 142.959 M255.539 146.101 C 255.747 147.741,256.171 152.695,256.481 157.110 C 257.060 165.345,257.630 166.252,260.744 163.887 C 264.621 160.941,264.876 153.537,261.339 146.560 C 258.942 141.828,254.958 141.513,255.539 146.101 M83.441 145.847 C 88.936 148.788,84.903 162.385,78.535 162.385 C 72.928 162.385,67.951 151.595,71.556 147.252 C 74.459 143.754,77.982 146.736,77.982 152.692 C 77.982 155.018,78.388 155.963,79.387 155.963 C 81.447 155.963,82.084 153.410,81.019 149.421 C 79.828 144.961,80.349 144.193,83.441 145.847 M98.657 196.293 C 96.442 198.741,97.431 202.533,100.485 203.299 C 103.419 204.036,105.505 202.313,105.505 199.154 C 105.505 194.592,101.653 192.983,98.657 196.293 M149.312 195.693 C 144.730 196.686,142.789 200.000,146.789 200.000 C 148.558 200.000,148.624 200.612,148.624 217.058 C 148.624 233.345,148.541 234.138,146.789 234.597 C 141.190 236.061,144.935 238.532,152.752 238.532 C 159.845 238.532,160.550 238.372,160.550 236.761 C 160.550 235.686,159.815 234.875,158.679 234.697 C 157.650 234.536,156.824 234.094,156.844 233.716 C 156.864 233.337,156.881 228.907,156.881 223.871 L 156.881 214.714 159.404 214.047 C 165.601 212.410,166.972 214.484,166.972 225.491 C 166.972 233.345,166.808 234.160,165.138 234.597 C 159.538 236.061,163.283 238.532,171.101 238.532 C 178.287 238.532,178.899 238.388,178.899 236.697 C 178.899 235.510,178.287 234.862,177.166 234.862 C 175.593 234.862,175.401 233.934,175.089 224.821 C 174.560 209.369,170.309 205.716,158.486 210.549 C 157.027 211.146,156.881 210.446,156.881 202.850 C 156.881 193.483,157.370 193.946,149.312 195.693 M259.862 195.726 C 255.679 196.752,254.111 200.000,257.798 200.000 C 259.563 200.000,259.633 200.612,259.633 216.055 C 259.633 230.887,259.493 232.250,257.798 233.945 C 254.159 237.584,255.298 238.532,263.303 238.532 C 270.720 238.532,274.217 236.011,268.774 234.588 C 267.026 234.131,266.923 233.496,267.169 224.684 L 267.431 215.268 270.343 214.082 C 272.910 213.036,273.508 213.101,275.389 214.623 C 278.553 217.184,279.208 232.246,276.236 234.102 C 271.778 236.886,273.789 238.532,281.651 238.532 C 288.987 238.532,292.580 236.015,287.238 234.618 C 285.663 234.206,285.453 233.080,285.173 223.595 C 284.759 209.529,281.768 206.307,272.214 209.636 C 270.088 210.376,268.039 210.988,267.661 210.996 C 267.282 211.003,266.972 207.294,266.972 202.752 C 266.972 193.535,267.335 193.893,259.862 195.726 M297.936 195.486 C 296.092 196.561,295.781 200.919,297.431 202.569 C 299.117 204.254,302.576 203.879,303.637 201.895 C 306.174 197.156,302.384 192.896,297.936 195.486 M347.477 195.693 C 342.895 196.686,340.954 200.000,344.954 200.000 C 346.721 200.000,346.789 200.612,346.789 216.506 C 346.789 232.018,346.679 233.081,344.954 234.158 C 340.582 236.889,342.650 238.532,350.459 238.532 C 357.850 238.532,361.375 236.012,355.963 234.597 C 354.200 234.135,354.128 233.345,354.128 214.306 C 354.128 199.002,353.868 194.524,352.982 194.622 C 352.351 194.691,349.874 195.173,347.477 195.693 M382.339 195.693 C 377.757 196.686,375.816 200.000,379.817 200.000 C 381.396 200.000,381.651 200.612,381.651 204.391 L 381.651 208.781 376.798 208.781 C 367.394 208.781,362.214 214.452,362.263 224.693 C 362.317 235.978,370.426 242.465,378.515 237.692 C 382.382 235.411,382.569 235.386,382.569 237.156 C 382.569 238.212,383.741 238.532,387.615 238.532 C 392.905 238.532,395.186 235.737,390.826 234.597 C 389.062 234.135,388.991 233.345,388.991 214.306 C 388.991 199.002,388.730 194.524,387.844 194.622 C 387.213 194.691,384.736 195.173,382.339 195.693 M227.414 198.627 C 217.607 203.956,221.288 215.408,234.819 221.663 C 245.205 226.464,246.835 228.667,243.262 233.079 C 239.370 237.885,228.776 234.474,227.121 227.881 C 225.752 222.429,222.936 225.275,222.936 232.110 C 222.936 238.112,225.342 241.619,226.758 237.682 C 226.933 237.196,229.223 237.409,232.110 238.180 C 252.870 243.726,259.958 224.625,240.660 215.138 C 229.279 209.542,226.851 206.223,231.235 202.255 C 235.326 198.553,242.989 201.102,245.071 206.857 C 247.237 212.849,249.541 211.206,249.541 203.670 C 249.541 197.609,247.072 194.107,245.700 198.222 C 245.470 198.910,244.621 198.910,242.811 198.222 C 239.186 196.844,230.263 197.079,227.414 198.627 M3.670 200.000 C 3.670 201.223,4.281 201.835,5.505 201.835 C 7.267 201.835,7.339 202.446,7.339 217.423 C 7.339 232.018,7.222 233.085,5.505 234.158 C 0.944 237.006,3.184 238.532,11.927 238.532 C 19.993 238.532,20.183 238.482,20.183 236.366 C 20.183 234.550,19.813 234.270,17.890 234.638 L 15.596 235.076 15.596 227.630 C 15.596 221.484,15.847 220.183,17.033 220.183 C 19.544 220.183,22.018 222.021,22.018 223.885 C 22.018 225.076,22.641 225.688,23.853 225.688 C 25.525 225.688,25.688 225.076,25.688 218.807 C 25.688 211.502,22.593 207.989,21.850 214.450 C 21.608 216.552,21.062 217.020,18.578 217.260 L 15.596 217.547 15.596 210.333 C 15.596 205.946,16.028 202.688,16.697 202.018 C 19.418 199.298,28.073 201.984,28.605 205.714 C 29.299 210.585,32.110 208.631,32.110 203.278 L 32.110 198.165 17.890 198.165 C 4.281 198.165,3.670 198.244,3.670 200.000 M188.991 201.803 C 188.991 203.262,183.396 209.174,182.015 209.174 C 181.260 209.174,180.734 210.116,180.734 211.468 C 180.734 213.303,181.193 213.761,183.028 213.761 L 185.321 213.761 185.214 223.851 C 185.086 235.964,185.959 237.959,191.797 238.893 C 197.842 239.860,205.890 234.881,202.983 231.974 C 202.122 231.113,201.504 231.208,200.179 232.407 C 195.214 236.900,192.661 233.393,192.661 222.079 L 192.661 213.761 196.330 213.761 C 199.633 213.761,200.000 213.532,200.000 211.468 C 200.000 209.404,199.633 209.174,196.330 209.174 L 192.661 209.174 192.661 205.046 C 192.661 201.529,192.389 200.917,190.826 200.917 C 189.817 200.917,188.991 201.316,188.991 201.803 M136.864 205.959 C 135.831 207.274,134.854 208.725,134.694 209.185 C 134.525 209.672,132.771 209.605,130.484 209.022 C 119.298 206.172,109.476 218.734,117.004 226.261 L 119.328 228.586 117.004 230.415 C 114.067 232.724,113.867 236.942,116.603 238.859 L 118.528 240.207 116.559 241.260 C 113.917 242.674,112.660 246.187,113.761 249.083 C 115.072 252.529,136.997 252.670,140.207 249.253 C 146.260 242.809,141.458 236.664,129.358 235.369 C 117.344 234.083,115.860 230.281,127.369 230.272 C 136.895 230.264,143.656 219.930,138.130 213.824 C 135.506 210.924,137.068 207.327,140.122 209.235 C 142.863 210.946,145.135 209.690,144.786 206.657 C 144.364 202.984,139.539 202.559,136.864 205.959 M53.211 208.902 C 52.454 209.178,50.700 210.461,49.312 211.754 L 46.789 214.105 46.789 211.640 C 46.789 208.833,46.364 208.752,39.706 210.300 C 34.553 211.498,32.532 214.681,36.927 214.677 C 39.505 214.675,39.666 233.567,37.096 234.554 C 32.526 236.307,35.895 238.532,43.119 238.532 C 49.847 238.532,50.459 238.379,50.459 236.697 C 50.459 235.474,49.847 234.862,48.624 234.862 C 45.819 234.862,45.872 219.761,48.690 216.179 C 50.815 213.478,52.747 213.064,53.543 215.138 C 54.319 217.161,58.472 216.848,59.633 214.679 C 61.636 210.936,57.600 207.305,53.211 208.902 M73.132 208.890 C 66.857 209.902,61.622 219.236,62.826 227.267 C 64.480 238.291,78.257 243.067,86.791 235.575 C 90.717 232.127,89.655 228.898,85.635 232.060 C 80.403 236.176,73.597 234.807,71.659 229.249 C 69.527 223.134,69.752 222.936,78.824 222.936 C 90.732 222.936,91.214 222.567,88.418 215.580 C 86.335 210.374,80.303 207.734,73.132 208.890 M322.948 208.933 C 309.244 211.492,308.351 234.173,321.780 238.605 C 328.503 240.824,341.537 235.272,338.420 231.516 C 337.505 230.413,337.140 230.420,335.876 231.564 C 329.445 237.384,320.198 233.786,320.187 225.459 L 320.183 222.936 328.670 222.922 C 338.731 222.905,339.882 222.406,339.011 218.441 C 338.105 214.317,334.378 210.299,330.446 209.206 C 326.943 208.233,326.734 208.226,322.948 208.933 M98.394 210.244 C 94.168 211.191,92.544 214.679,96.330 214.679 C 98.035 214.679,98.165 215.291,98.165 223.319 C 98.165 232.730,97.723 234.862,95.773 234.862 C 95.071 234.862,94.495 235.688,94.495 236.697 C 94.495 238.379,95.107 238.532,101.835 238.532 C 109.226 238.532,112.751 236.012,107.339 234.597 C 105.618 234.146,105.505 233.345,105.505 221.646 C 105.505 207.692,106.030 208.534,98.394 210.244 M296.560 210.244 C 291.917 211.284,290.769 214.679,295.061 214.679 L 297.461 214.679 297.089 223.954 C 296.791 231.355,296.399 233.461,295.147 234.376 C 291.321 237.174,293.206 238.532,300.917 238.532 C 307.645 238.532,308.257 238.379,308.257 236.697 C 308.257 235.474,307.645 234.862,306.422 234.862 C 304.675 234.862,304.587 234.251,304.587 222.018 C 304.587 207.479,305.159 208.318,296.560 210.244 M80.667 214.344 C 83.906 218.462,83.250 219.266,76.653 219.266 L 70.738 219.266 71.656 216.632 C 72.511 214.179,75.167 212.133,77.686 211.989 C 78.280 211.955,79.622 213.014,80.667 214.344 M130.300 213.333 C 133.828 217.584,131.608 227.523,127.131 227.523 C 124.891 227.523,122.018 222.928,122.018 219.346 C 122.018 213.277,127.157 209.546,130.300 213.333 M329.515 213.445 C 333.313 216.882,331.746 219.266,325.688 219.266 C 319.582 219.266,319.637 219.314,321.540 215.634 C 323.562 211.724,326.671 210.871,329.515 213.445 M380.809 212.844 C 382.105 212.844,381.864 231.531,380.550 232.844 C 378.454 234.940,373.584 234.170,371.810 231.462 C 366.918 223.996,371.806 210.641,378.745 212.514 C 379.417 212.696,380.346 212.844,380.809 212.844 M133.516 242.614 C 139.245 245.007,135.455 250.459,128.062 250.459 C 122.068 250.459,117.553 245.138,120.795 241.896 C 121.904 240.787,130.274 241.259,133.516 242.614 " stroke="none" fill="#000000" fill-rule="evenodd"></path></g></svg>