<svg width="30" height="30" viewBox="0 0 30 30" fill="none" xmlns="http://www.w3.org/2000/svg">
<circle cx="15" cy="15" r="14" stroke="#0866FF" stroke-width="2"/>
<g clip-path="url(#clip0_307_257)">
<mask id="path-2-inside-1_307_257" fill="white">
<path d="M14.5234 23.1418C14.5229 23.0504 14.5404 22.9598 14.575 22.8752C14.6095 22.7906 14.6605 22.7136 14.7248 22.6488L21.8707 15.5029L14.7248 8.35709C14.6111 8.22424 14.5516 8.05335 14.5584 7.87858C14.5651 7.7038 14.6376 7.53801 14.7612 7.41434C14.8849 7.29066 15.0507 7.21821 15.2255 7.21146C15.4003 7.2047 15.5711 7.26415 15.704 7.37792L23.8359 15.5029L15.704 23.6349C15.6065 23.7304 15.483 23.7951 15.349 23.8209C15.2149 23.8467 15.0762 23.8324 14.9502 23.7797C14.8243 23.7271 14.7166 23.6386 14.6407 23.5251C14.5648 23.4116 14.524 23.2783 14.5234 23.1418Z"/>
</mask>
<path d="M14.5234 23.1418C14.5229 23.0504 14.5404 22.9598 14.575 22.8752C14.6095 22.7906 14.6605 22.7136 14.7248 22.6488L21.8707 15.5029L14.7248 8.35709C14.6111 8.22424 14.5516 8.05335 14.5584 7.87858C14.5651 7.7038 14.6376 7.53801 14.7612 7.41434C14.8849 7.29066 15.0507 7.21821 15.2255 7.21146C15.4003 7.2047 15.5711 7.26415 15.704 7.37792L23.8359 15.5029L15.704 23.6349C15.6065 23.7304 15.483 23.7951 15.349 23.8209C15.2149 23.8467 15.0762 23.8324 14.9502 23.7797C14.8243 23.7271 14.7166 23.6386 14.6407 23.5251C14.5648 23.4116 14.524 23.2783 14.5234 23.1418Z" fill="#0866FF"/>
<path d="M14.5234 23.1418L19.5234 23.1211L19.5234 23.1129L14.5234 23.1418ZM14.7248 22.6488L11.1893 19.1132L11.1821 19.1204L11.1749 19.1277L14.7248 22.6488ZM21.8707 15.5029L25.4062 19.0385L28.9417 15.5029L25.4062 11.9674L21.8707 15.5029ZM14.7248 8.35709L10.9271 11.6094L11.0527 11.7561L11.1893 11.8926L14.7248 8.35709ZM15.704 7.37792L19.238 3.84088L19.1022 3.70513L18.9563 3.5802L15.704 7.37792ZM23.8359 15.5029L27.3715 19.0385L30.9085 15.5014L27.37 11.9659L23.8359 15.5029ZM15.704 23.6349L19.204 27.2055L19.2219 27.1881L19.2395 27.1704L15.704 23.6349ZM19.5234 23.1129C19.5266 23.6795 19.418 24.2412 19.2038 24.7658L9.94621 20.9846C9.66282 21.6784 9.51919 22.4213 9.52352 23.1707L19.5234 23.1129ZM19.2038 24.7658C18.9895 25.2904 18.6738 25.7675 18.2747 26.1698L11.1749 19.1277C10.6471 19.6598 10.2296 20.2908 9.94621 20.9846L19.2038 24.7658ZM18.2604 26.1843L25.4062 19.0385L18.3351 11.9674L11.1893 19.1132L18.2604 26.1843ZM25.4062 11.9674L18.2604 4.82155L11.1893 11.8926L18.3351 19.0385L25.4062 11.9674ZM18.5225 5.10481C19.2279 5.92849 19.5965 6.98799 19.5546 8.07156L9.56209 7.68559C9.50673 9.11872 9.99419 10.52 10.9271 11.6094L18.5225 5.10481ZM19.5546 8.07156C19.5128 9.15515 19.0636 10.1831 18.2968 10.9499L11.2257 3.8788C10.2115 4.89296 9.61744 6.25245 9.56209 7.68559L19.5546 8.07156ZM18.2968 10.9499C17.53 11.7167 16.5021 12.1659 15.4185 12.2077L15.0325 2.21518C13.5993 2.27054 12.2399 2.86465 11.2257 3.8788L18.2968 10.9499ZM15.4185 12.2077C14.3349 12.2496 13.2754 11.881 12.4517 11.1756L18.9563 3.5802C17.8669 2.6473 16.4656 2.15982 15.0325 2.21518L15.4185 12.2077ZM12.17 10.915L20.3019 19.04L27.37 11.9659L19.238 3.84088L12.17 10.915ZM20.3004 11.9674L12.1685 20.0993L19.2395 27.1704L27.3715 19.0385L20.3004 11.9674ZM12.2039 20.0642C12.8084 19.4717 13.574 19.0705 14.4052 18.9108L16.2927 28.731C17.392 28.5197 18.4046 27.9891 19.204 27.2055L12.2039 20.0642ZM14.4052 18.9108C15.2363 18.751 16.0962 18.8398 16.8772 19.166L13.0233 28.3935C14.0563 28.8249 15.1934 28.9423 16.2927 28.731L14.4052 18.9108ZM16.8772 19.166C17.6582 19.4922 18.3257 20.0413 18.7964 20.7447L10.485 26.3055C11.1075 27.2358 11.9903 27.9621 13.0233 28.3935L16.8772 19.166ZM18.7964 20.7447C19.267 21.4482 19.5199 22.2748 19.5234 23.1211L9.52348 23.1625C9.52811 24.2819 9.86256 25.3751 10.485 26.3055L18.7964 20.7447Z" fill="#0866FF" mask="url(#path-2-inside-1_307_257)"/>
<mask id="path-4-inside-2_307_257" fill="white">
<path d="M6.88281 23.1418C6.88228 23.0504 6.8998 22.9598 6.93436 22.8752C6.96892 22.7906 7.01984 22.7136 7.0842 22.6488L14.23 15.5029L7.0842 8.35709C6.97043 8.22424 6.91098 8.05335 6.91774 7.87858C6.92449 7.7038 6.99694 7.53801 7.12062 7.41434C7.24429 7.29066 7.41008 7.21821 7.58486 7.21146C7.75963 7.2047 7.93052 7.26415 8.06337 7.37792L16.1953 15.5029L8.06337 23.6349C7.96588 23.7304 7.84239 23.7951 7.70833 23.8209C7.57427 23.8467 7.43559 23.8324 7.30962 23.7797C7.18365 23.7271 7.07598 23.6386 7.00007 23.5251C6.92416 23.4116 6.88338 23.2783 6.88281 23.1418Z"/>
</mask>
<path d="M6.88281 23.1418C6.88228 23.0504 6.8998 22.9598 6.93436 22.8752C6.96892 22.7906 7.01984 22.7136 7.0842 22.6488L14.23 15.5029L7.0842 8.35709C6.97043 8.22424 6.91098 8.05335 6.91774 7.87858C6.92449 7.7038 6.99694 7.53801 7.12062 7.41434C7.24429 7.29066 7.41008 7.21821 7.58486 7.21146C7.75963 7.2047 7.93052 7.26415 8.06337 7.37792L16.1953 15.5029L8.06337 23.6349C7.96588 23.7304 7.84239 23.7951 7.70833 23.8209C7.57427 23.8467 7.43559 23.8324 7.30962 23.7797C7.18365 23.7271 7.07598 23.6386 7.00007 23.5251C6.92416 23.4116 6.88338 23.2783 6.88281 23.1418Z" fill="#0866FF"/>
<path d="M6.88281 23.1418L8.8828 23.1335L8.88278 23.1302L6.88281 23.1418ZM7.0842 22.6488L5.66998 21.2345L5.66423 21.2403L7.0842 22.6488ZM14.23 15.5029L15.6442 16.9171L17.0585 15.5029L15.6442 14.0887L14.23 15.5029ZM7.0842 8.35709L5.56511 9.658L5.61536 9.71668L5.66999 9.7713L7.0842 8.35709ZM8.06337 7.37792L9.47698 5.9631L9.42263 5.9088L9.36428 5.85883L8.06337 7.37792ZM16.1953 15.5029L17.6095 16.9171L19.0243 15.5023L17.6089 14.0881L16.1953 15.5029ZM8.06337 23.6349L9.46339 25.0631L9.47052 25.0561L9.47758 25.0491L8.06337 23.6349ZM8.88278 23.1302C8.88377 23.3021 8.85084 23.4724 8.78587 23.6315L5.08285 22.119C4.94876 22.4472 4.8808 22.7988 4.88285 23.1534L8.88278 23.1302ZM8.78587 23.6315C8.7209 23.7905 8.62516 23.9352 8.50417 24.0572L5.66423 21.2403C5.41451 21.4921 5.21694 21.7907 5.08285 22.119L8.78587 23.6315ZM8.49841 24.063L15.6442 16.9171L12.8158 14.0887L5.66999 21.2345L8.49841 24.063ZM15.6442 14.0887L8.49841 6.94287L5.66999 9.7713L12.8158 16.9171L15.6442 14.0887ZM8.60329 7.05618C8.81718 7.30594 8.92894 7.6272 8.91624 7.95577L4.91923 7.80138C4.89303 8.4795 5.12369 9.14254 5.56511 9.658L8.60329 7.05618ZM8.91624 7.95577C8.90355 8.28434 8.76735 8.59603 8.53483 8.82855L5.7064 6.00012C5.22653 6.47999 4.94542 7.12327 4.91923 7.80138L8.91624 7.95577ZM8.53483 8.82855C8.30231 9.06106 7.99063 9.19727 7.66205 9.20997L7.50766 5.21295C6.82954 5.23914 6.18627 5.52025 5.7064 6.00012L8.53483 8.82855ZM7.66205 9.20997C7.33348 9.22266 7.01221 9.11089 6.76246 8.89701L9.36428 5.85883C8.84883 5.41741 8.18579 5.18675 7.50766 5.21295L7.66205 9.20997ZM6.64976 8.79274L14.7817 16.9177L17.6089 14.0881L9.47698 5.9631L6.64976 8.79274ZM14.7811 14.0887L6.64915 22.2207L9.47758 25.0491L17.6095 16.9171L14.7811 14.0887ZM6.66335 22.2066C6.84663 22.0269 7.07879 21.9053 7.33082 21.8569L8.08583 25.7849C8.60598 25.685 9.08513 25.4339 9.46339 25.0631L6.66335 22.2066ZM7.33082 21.8569C7.58285 21.8084 7.84357 21.8353 8.08039 21.9342L6.53885 25.6253C7.02761 25.8294 7.56569 25.8849 8.08583 25.7849L7.33082 21.8569ZM8.08039 21.9342C8.31722 22.0331 8.51963 22.1997 8.66234 22.413L5.33781 24.6372C5.63234 25.0775 6.05009 25.4211 6.53885 25.6253L8.08039 21.9342ZM8.66234 22.413C8.80505 22.6263 8.88173 22.8769 8.88279 23.1335L4.88283 23.1501C4.88502 23.6797 5.04327 24.197 5.33781 24.6372L8.66234 22.413Z" fill="#0866FF" mask="url(#path-4-inside-2_307_257)"/>
</g>
<defs>
<clipPath id="clip0_307_257">
<rect width="25" height="25" fill="white" transform="matrix(0 1 -1 0 28 3)"/>
</clipPath>
</defs>
</svg>
